<?xml version="1.0" encoding="utf-8"?>
<!-- Generator: Adobe Illustrator 18.1.1, SVG Export Plug-In . SVG Version: 6.00 Build 0)  -->
<svg version="1.1" id="Layer_1" xmlns="http://www.w3.org/2000/svg" xmlns:xlink="http://www.w3.org/1999/xlink" x="0px" y="0px"
	 viewBox="0 0 26.3 22" enable-background="new 0 0 26.3 22" xml:space="preserve">
<path fill="#FFFFFF" d="M10.6,2.9H3.5c-0.6,0-1.1-0.5-1.1-1.1V1.1C2.5,0.5,2.9,0,3.5,0l7.1,0c0.6,0,1.1,0.5,1.1,1.1v0.7
	C11.7,2.4,11.2,2.9,10.6,2.9z"/>
<path fill="#FFFFFF" d="M25.2,7.5H1.1C0.5,7.5,0,7,0,6.4l0-0.7c0-0.6,0.5-1.1,1.1-1.1h24.1c0.6,0,1.1,0.5,1.1,1.1v0.7
	C26.3,7,25.8,7.5,25.2,7.5z"/>
<path fill="#FFFFFF" d="M3.9,12.3h18.4c0.6,0,1.1-0.5,1.1-1.1v-0.8c0-0.6-0.5-1.1-1.1-1.1H3.9c-0.6,0-1.1,0.5-1.1,1.1v0.8
	C2.9,11.8,3.3,12.3,3.9,12.3z"/>
<path fill="#FFFFFF" d="M16.6,16.9H9.7c-0.7,0-1.4-0.6-1.4-1.4v-0.2c0-0.7,0.6-1.4,1.4-1.4h6.9c0.7,0,1.4,0.6,1.4,1.4v0.2
	C17.9,16.3,17.3,16.9,16.6,16.9z"/>
<path fill="#FFFFFF" d="M23.3,2.9h-7.1c-0.6,0-1.1-0.5-1.1-1.1V1.1c0-0.6,0.5-1.1,1.1-1.1l7.1,0c0.6,0,1.1,0.5,1.1,1.1v0.7
	C24.4,2.4,23.9,2.9,23.3,2.9z"/>
<path fill="#FFFFFF" d="M14.4,21.4h-2.4c-0.5,0-0.9-0.4-0.9-0.9v-1.1c0-0.5,0.4-0.9,0.9-0.9h2.4c0.5,0,0.9,0.4,0.9,0.9v1.1
	C15.3,21,14.9,21.4,14.4,21.4z"/>
</svg>
