<?xml version="1.0" encoding="utf-8"?>
<!-- Generator: Adobe Illustrator 18.1.1, SVG Export Plug-In . SVG Version: 6.00 Build 0)  -->
<svg version="1.1" id="Layer_1" xmlns="http://www.w3.org/2000/svg" xmlns:xlink="http://www.w3.org/1999/xlink" x="0px" y="0px"
	 viewBox="0 0 177.9 181.8" enable-background="new 0 0 177.9 181.8" xml:space="preserve">
<path fill="#5ECAE7" d="M157.5,39.3c0.6,19.9-8.1,31.7-23.5,42c-8.5,5.7-3.7,19.2,8.3,30.1c19.9,18.2,10,63.4-32.1,69.3
	c-14.6,2-40,1.2-53.5-4.9C21,159.9,6.2,123.6,0.1,88.5c-0.6-3.5,4.1,0.7,9.2,5.6c5.9,5.5-5.3-12.7-1.9-12.3
	c3.6,0.4,10.7,10.1,9.7,5.9c-1.7-7.4-2.8-12.2-0.7-9.9c33.4,35.5,56.4,27.4,63.5,26.7c15.9-1.7,25.9-17,14.8-32.3
	C89,64,82.5,53.2,82.2,42.4c-1-34.4,39.6-56.3,64.1-32.2C154.2,18,157.2,28.4,157.5,39.3z"/>
<path fill="#44A9DF" d="M36.1,120.8c-0.8-0.6-1.8,0.3-1.3,1.2c21.7,39.1,42.5,42,61.8,41.4c4.6-0.1,39.3-4.6,36.2-27.6
	C126.3,87.2,70.9,146.8,36.1,120.8z"/>
<path fill="#00B7D3" d="M176.9,49.9L155,57.8c-7.5-4.8-5.6-26.6,1.5-28l21,17.8C178.2,48.3,177.9,49.7,176.9,49.9z"/>
<circle fill="#398BCB" cx="134.2" cy="32.2" r="6"/>
</svg>
