<?xml version="1.0" encoding="utf-8"?>
<!-- Generator: Adobe Illustrator 18.1.1, SVG Export Plug-In . SVG Version: 6.00 Build 0)  -->
<svg version="1.1" id="Layer_1" xmlns="http://www.w3.org/2000/svg" xmlns:xlink="http://www.w3.org/1999/xlink" x="0px" y="0px"
	 viewBox="286.8 0.1 1455.6 999.9" enable-background="new 286.8 0.1 1455.6 999.9" xml:space="preserve">
<g>
	<path fill="#33439B" d="M294.1,820.3c-35.9-211.6,67.3-300.6,160.2-344.1c100-47.1,106.6-66.4,154.7-152.8
		c29.5-53.3,42.1-113.3,64.3-169.4C695.3,97.5,731.3,41.8,791,16.1c70.2-30.2,156.1-12.9,231.6,12.6s150.6,59.3,229.9,60
		c91.1,1,177.1-41.9,268.2-33.1c107.6,10.5,199,97.6,217.8,193.5c18.6,95.7-29,193.7-109.2,254.6c-56.2,42.6-128.7,71.6-164.4,129.2
		c-56.2,90.2-1.7,219.7-69.7,303c-52.4,64-157.3,73.1-246.8,57.4c-89.7-15.7-176.3-50.2-267.3-54c-84.2-3.3-165.2,20.5-246.3,37.8
		c-81.2,17.1-121.4,25-200.9-4.3C354.3,943.5,303.2,874.1,294.1,820.3z"/>
</g>
<g>
	<g>
		<path fill="#1A237E" d="M1275.3,293.1c13.1-11.4,29.3,0.2,43.6,1.7c10.5,1,19.5-3.3,26.2-11.4c1.2-1.7-1-3.6-2.1-2.1
			c-12.9,16.4-28.8,8.8-45.5,5.2c-8.8-1.7-17.4-1.4-24.3,4.8C1271.7,292.2,1273.9,294.3,1275.3,293.1L1275.3,293.1z"/>
	</g>
</g>
<g>
	<g>
		<path fill="#1A237E" d="M1192.3,331c19.5-11.2,37.4-9.5,58.3-4.3c10,2.6,20.9,2.4,27.4-6.9c1-1.7-1.7-2.9-2.6-1.7
			c-10.2,15-33.1,1.7-47.4,0.7c-13.3-0.5-25.9,2.9-37.1,9.3C1188.9,329.3,1190.6,331.9,1192.3,331L1192.3,331z"/>
	</g>
</g>
<g>
	<g>
		<path fill="#1A237E" d="M1044.9,303.9c15.7,7.1,33.3,8.6,49.5,2.4c8.6-3.1,15.9-8.6,23.8-12.6c13.1-6.9,36.6-11.4,40.5,8.8
			c0.5,1.7,3.1,1,2.9-0.7c-3.6-19-25.2-19.5-39.5-13.3c-10.7,4.8-20,12.4-31.2,15.9c-14.8,4.5-30.2,3.1-44-3.1
			C1044.7,300.5,1043.3,302.9,1044.9,303.9L1044.9,303.9z"/>
	</g>
</g>
<g>
	<g>
		<path fill="#1A237E" d="M1129.2,237.2c3.3-8.1,16.2-4,21.9-1.2c2.9,1.4,5.9,3.3,9.5,2.9c4.5-0.5,6.9-4,6.4-8.1
			c-0.2-1.9-3.1-1-2.9,0.7c1.2,8.8-13.8,0.5-16.2-0.5c-3.6-1.2-7.6-1.7-11.2-1.4c-4.5,0.5-8.3,2.4-10,6.7
			C1125.6,238.2,1128.7,239.1,1129.2,237.2L1129.2,237.2z"/>
	</g>
</g>
<g>
	<g>
		<path fill="#1A237E" d="M1393.3,342.2c7.9-7.6,18.8-11.2,29.7-7.9c6.4,1.9,12.1,6.2,18.8,7.4c11.2,1.7,21.2-4,26.4-13.8
			c0.7-1.7-1.7-3.1-2.6-1.7c-5.2,10-15.7,14.8-26.7,11.7c-7.4-2.1-13.1-6.7-20.7-7.6c-10.2-1.2-19.8,2.9-27.1,9.8
			C1389.8,341.5,1391.9,343.6,1393.3,342.2L1393.3,342.2z"/>
	</g>
</g>
<g>
	<g>
		<path fill="#1A237E" d="M1489.5,306.2c3.8-6.2,9.8-7.6,16.2-5.2c2.9,1,6.2,2.1,9.3,1.4c4-1.2,6.4-5,4.5-8.8
			c-0.7-1.7-3.3-0.2-2.6,1.7c-0.7,4-2.9,5.2-5.2,4.5c-1.2,0-2.1-0.5-3.3-0.7c-1.2-0.5-2.1-0.7-3.3-1.2c-2.1-0.5-4.5-0.7-6.7-0.5
			c-4.8,0.7-8.6,3.8-11.2,7.6C1485.9,306.2,1488.5,307.7,1489.5,306.2L1489.5,306.2z"/>
	</g>
</g>
<g>
	<g>
		<path fill="#1A237E" d="M1443.8,244.8c5.7-8.6,14-6.2,22.1-3.6c3.6,1,7.6,2.4,11.2,0.5c4.3-2.4,4.8-7.9,0.2-10.2
			c-1.7-0.7-3.1,1.7-1.7,2.6c-0.2,4.8-1.7,6.4-5,5.5c-1,0-1.9-0.2-2.9-0.5c-1.9-0.5-4-1.4-5.9-1.9c-3.1-1-6.4-1.7-9.8-1
			c-4.8,0.7-8.3,3.8-11.2,7.6C1440.2,244.8,1442.8,246.3,1443.8,244.8L1443.8,244.8z"/>
	</g>
</g>
<g>
	<g>
		<path fill="#1A237E" d="M1382.6,322.9c-4.5-1.7-9.5-2.9-14.5-1.4c-1.9,0.5-3.6,1.7-5.2,2.9c-1,0.7-1.9,1.7-2.9,2.1
			c-3.1,2.9-6.7,1.9-10.5-2.4c0.5-1.7-2.1-2.6-2.9-0.7c-1.7,4.5,1.7,8.6,6.4,8.8c3.8,0.2,6.7-1.9,9.8-4c6.2-4.3,11.4-4.5,18.8-2.1
			C1383.6,326.5,1384.5,323.4,1382.6,322.9L1382.6,322.9z"/>
	</g>
</g>
<g>
	<g>
		<path fill="#1A237E" d="M625.9,463.1c11.4-18.6,25,1.9,38.8,2.4c8.1,0.2,14.8-4.8,18.1-11.9c0.7-1.7-1.7-3.1-2.6-1.7
			c-4.5,9.8-14.8,12.6-24,7.6c-4.5-2.4-8.8-6.2-13.8-7.1c-7.9-1.7-14.8,2.4-19,8.8C622.3,463.1,624.9,464.5,625.9,463.1L625.9,463.1
			z"/>
	</g>
</g>
<g>
	<g>
		<path fill="#1A237E" d="M618.7,518.7c14.8-11.7,27.8,3.3,43.3,2.4c6.4-0.5,12.1-3.6,14.8-9.8c0.7-1.7-1.7-3.1-2.6-1.7
			c-6.9,16.4-26.7,3.3-38.3,1.7c-7.4-1.2-13.3,0.5-19,5.2C615.1,517.8,617.5,519.9,618.7,518.7L618.7,518.7z"/>
	</g>
</g>
<g>
	<g>
		<path fill="#1A237E" d="M706.1,565.9c21.7-32.4,61.9,20.7,83.3-10.2c1.2-1.7-1.4-2.9-2.6-1.7c-13.6,19.5-38.3,0.2-55.4-2.1
			c-11.4-1.7-21.4,2.9-27.8,12.4C702.2,565.9,704.9,567.3,706.1,565.9L706.1,565.9z"/>
	</g>
</g>
<g>
	<g>
		<path fill="#1A237E" d="M892.2,529.9c13.6-16.9,27.6-0.7,43.1,0.5c7.6,0.5,13.8-2.6,16.2-10c0.5-1.7-2.1-2.6-2.9-0.7
			c-5.9,18.1-28.8-0.5-39.7-1.2c-7.6-0.5-14.3,3.1-19,8.8C888.8,529.5,891,531.6,892.2,529.9L892.2,529.9z"/>
	</g>
</g>
<g>
	<g>
		<path fill="#1A237E" d="M906.7,481.1c1-11.2,23.3,0.5,28.8,1.4c4.3,0.7,9,1.4,13.1-0.7c5.9-3.1,6.9-10,1.4-13.8
			c-1.7-1-3.1,1.7-1.7,2.6c-1.2,7.6-4.3,10.9-9.5,9.5c-1.9-0.2-3.8-0.5-5.5-1c-3.3-0.7-6.4-2.4-9.8-3.6c-3.3-1.4-6.9-3.3-10.7-2.9
			c-5.2,0.5-8.8,3.8-9,8.8C903.6,482.8,906.7,482.8,906.7,481.1L906.7,481.1z"/>
	</g>
</g>
<g>
	<g>
		<path fill="#1A237E" d="M812.2,573.5c13.3-12.4,30.2,3.1,45.5,0c7.9-1.7,13.3-7.9,12.6-15.9c-0.2-1.9-3.1-1.9-2.9,0
			c0.7,8.6-7.4,13.6-14.8,13.6c-3.3,0-6.7-0.7-10-1.7c-5.2-1.2-10-3.1-15.2-3.6c-6.4-0.5-12.1,1.2-17.1,5.5
			C808.6,572.8,811,574.7,812.2,573.5L812.2,573.5z"/>
	</g>
</g>
<g>
	<g>
		<path fill="#1A237E" d="M461.9,706.8c2.9-3.8,7.6-5.9,12.4-5c2.9,0.5,5.5,3.1,8.6,3.3c4,0.5,7.1-2.9,5.2-6.7
			c-0.7-1.7-3.3-0.2-2.6,1.7c-1.9,1.7-4,2.1-5.5,1c-0.5-0.5-1.4-0.7-2.1-1.2c-1-0.5-1.7-0.7-2.9-1c-1.7-0.5-3.6-0.5-5.2-0.2
			c-4.3,0.5-7.6,2.9-10,6.4C458.3,707,460.9,708.4,461.9,706.8L461.9,706.8z"/>
	</g>
</g>
<g>
	<g>
		<path fill="#1A237E" d="M582.1,714.8c9.3-8.3,17.1,0,26.9-1.7c4.8-0.7,7.9-4,7.6-8.8c0-1.9-2.9-1.9-2.9,0c-2.4,1.9-4.8,4-7.1,6.2
			c-1.4-0.2-2.9-0.5-4-0.5c-1.4-0.5-2.9-0.7-4.3-1.2c-2.6-0.5-5-1-7.6-0.7c-4,0.5-7.6,2.4-10.5,5C578.5,714.1,580.9,716,582.1,714.8
			L582.1,714.8z"/>
	</g>
</g>
<g>
	<g>
		<path fill="#1A237E" d="M549.7,782c13.6-15.2,33.8,17.1,48.8,0.5c1.2-1.4-0.7-3.6-2.1-2.1c-13.6,15.2-33.8-17.1-48.8-0.5
			C546.4,781,548.5,783.4,549.7,782L549.7,782z"/>
	</g>
</g>
<g>
	<g>
		<path fill="#1A237E" d="M416.4,820.7c6.2,4,13.1,5.2,20,2.6c4.5-1.7,8.1-5.5,12.6-7.6c7.9-3.3,15.9-1.4,21.9,4.8
			c1.4,1.4,3.3-0.7,2.1-2.1c-5.2-5.2-12.4-8.3-19.8-7.1c-13.6,2.1-20.5,16.9-35.2,6.9C416.4,817.2,414.8,819.8,416.4,820.7
			L416.4,820.7z"/>
	</g>
</g>
<g>
	<g>
		<path fill="#1A237E" d="M528.5,832.6c21.9,29.3,57.6-30.9,78.3,2.4c1,1.7,3.6,0.2,2.6-1.7c-5.7-9.3-15.7-13.6-26.4-11.2
			c-15.2,3.6-38.1,27.4-51.6,8.8C529.9,829.6,527.3,831.2,528.5,832.6L528.5,832.6z"/>
	</g>
</g>
<g>
	<g>
		<path fill="#1A237E" d="M709.4,739.6c7.4-2.9,14-2.9,21.7-0.5c4.8,1.4,9.5,3.3,14.5,2.6c6.2-0.7,10-5,10.5-10.9
			c0.2-1.9-2.9-1.9-2.9,0c-1.2,15-22.4,4-29.5,3.6c-5.2-0.5-10,0.5-14.8,2.6C707,737.2,707.7,740.3,709.4,739.6L709.4,739.6z"/>
	</g>
</g>
<g>
	<g>
		<path fill="#1A237E" d="M726,698.7c6.2-6.4,15.2,5,22.4,4.3c4.8-0.5,7.9-4.3,6.7-8.8c-0.5-1.7-3.3-1-2.9,0.7c-0.5,1.4-0.5,2.6-1,4
			c-2.9,1.7-5.5,1.7-7.9,0.2c-1.4-0.5-2.6-1.4-3.8-1.9c-2.1-1.2-4.3-2.6-6.7-2.9c-3.3-0.7-6.4,0.2-8.8,2.6
			C722.5,697.9,724.9,700.1,726,698.7L726,698.7z"/>
	</g>
</g>
<g>
	<g>
		<path fill="#1A237E" d="M715.6,827.2c8.6-15.9,28.8,2.9,41.2,0.5c6.4-1.2,10.5-5.7,10.9-12.1c0.2-1.9-2.9-1.9-2.9,0
			c-1.4,19.3-29.3,2.1-37.8,2.1c-6.2,0-11.2,2.6-13.8,7.9C712.2,827.4,714.9,828.8,715.6,827.2L715.6,827.2z"/>
	</g>
</g>
<g>
	<g>
		<path fill="#1A237E" d="M786.7,850.7c7.6-4,15-4,23.3-1.7c3.8,1,7.4,2.6,11.2,2.4c5.9-0.5,10-4.3,9.3-10.5c-0.2-1.7-3.1-1.9-2.9,0
			c1.7,13.6-19.5,3.8-25.5,3.6c-5.9-0.5-11.4,1.2-16.7,4C783.6,849.1,785.1,851.7,786.7,850.7L786.7,850.7z"/>
	</g>
</g>
<g>
	<g>
		<path fill="#1A237E" d="M888.1,854.3c5.5,2.4,10.5,1.7,15.9-0.7c11.9-5.2,19.8-14.8,33.6-6.2c7.1,4.3,18.8,8.8,21.9-2.4
			c0.5-1.7-2.4-2.6-2.9-0.7c-3.1,12.1-17.1,0.5-22.4-2.1c-3.6-1.7-6.9-2.1-10.9-1.4c-12.4,2.1-20.9,16.4-34.5,10.9
			C887.2,850.7,886.4,853.6,888.1,854.3L888.1,854.3z"/>
	</g>
</g>
<g>
	<g>
		<path fill="#1A237E" d="M842.7,810.3c12.1-10,25.9,9.8,39.3,5.9c2.1-0.5,4-2.1,6.2-3.1c4-3.6,8.8-4,14.8-1.7
			c0.7,0.5,1.4,1.2,2.1,1.7c4,1.4,4.8,2.9,9,1.9c1.7-0.5,1-3.3-0.7-2.9c-6.4,1.4-10.9-7.6-17.8-6.4c-2.6,0.5-4,1.7-6.4,2.9
			c-6.9,3.8-12.4,6.4-20.7,2.9c-9.5-4.3-18.3-11.2-27.8-3.1C839.1,809.3,841.2,811.5,842.7,810.3L842.7,810.3z"/>
	</g>
</g>
<g>
	<g>
		<path fill="#1A237E" d="M856.7,766.3c12.9-10.9,20.9,3.1,33.6,2.1c6.4-0.5,11.4-4.5,14-10.2c0.7-1.7-1.7-3.1-2.6-1.7
			c-3.8,8.1-11.2,10-18.8,7.4c-4-1.4-7.4-4-11.7-5c-6.4-1-11.9,1.2-16.9,5.2C853.1,765.3,855,767.4,856.7,766.3L856.7,766.3z"/>
	</g>
</g>
<g>
	<g>
		<path fill="#1A237E" d="M1013.5,828.1c12.4-8.6,20.9,0.5,33.6,0.5c5.7,0,10-2.9,12.4-8.1c0.7-1.7-2.1-2.6-2.9-0.7
			c-4.8,11.7-20,2.1-28.1,1.4c-5.9-0.5-11.2,1.2-15.9,4.5C1010.4,826.5,1011.9,829.1,1013.5,828.1L1013.5,828.1z"/>
	</g>
</g>
<g>
	<g>
		<path fill="#1A237E" d="M1087.3,801.7c2.9-3.3,10-4.5,14-4c2.9,0.5,5.7,2.4,8.6,3.3c2.6,1,5.2,1.9,7.6,2.1c5,0.5,9-1.4,12.1-5.2
			c1.2-1.7-1.4-2.9-2.6-1.7c-2.1,2.9-7.9,4-11.4,3.3c-2.9-0.5-5.2-1.7-7.6-2.9c-3.3-1.4-6.7-2.9-10.2-3.1c-5.2-0.5-9,1.7-12.4,5.7
			C1084.2,801,1086.1,803.1,1087.3,801.7L1087.3,801.7z"/>
	</g>
</g>
<g>
	<g>
		<path fill="#1A237E" d="M1089.4,766.5c7.6-12.6,23.3,2.6,33.8,1.7c4.8-0.5,8.1-3.3,6.9-8.3c-0.5-1.7-3.3-1-2.9,0.7
			c1.9,9.3-16.4,1.4-18.6,0.5c-2.9-1.2-5.9-2.4-9-2.6c-5.5-0.5-10,1.7-12.9,6.4C1085.9,766.5,1088.5,767.9,1089.4,766.5
			L1089.4,766.5z"/>
	</g>
</g>
<g>
	<g>
		<path fill="#1A237E" d="M1118,723.7c5.9-14.8,25.9,4,36.2,1.9c5.7-1.2,9.5-5.9,8.8-11.7c-0.2-1.7-3.1-1.9-2.9,0
			c2.1,16.7-19,5.5-23.6,3.6c-3.1-1.4-6.4-2.6-10-2.4c-5.2,0.2-9.3,2.9-11.2,7.6C1114.4,724.6,1117.1,725.6,1118,723.7L1118,723.7z"
			/>
	</g>
</g>
<g>
	<g>
		<path fill="#1A237E" d="M1040.9,707.7c9.5-16.7,30.2,0.5,44-4.5c6.4-2.4,9.5-9,5.5-15c-1-1.7-3.6,0-2.6,1.7
			c0.2,7.9-2.4,11.7-7.9,11.2c-1.9,0.5-4,0.2-5.9-0.2c-3.3-0.5-6.4-1.4-9.8-1.9c-4-0.7-8.1-1.7-12.4-1.2c-5.9,0.7-10.5,3.3-13.6,8.6
			C1037.6,707.9,1040.2,709.4,1040.9,707.7L1040.9,707.7z"/>
	</g>
</g>
<g>
	<path fill="#F1592B" d="M544.9,691.3c7.1,2.6,14,5.9,20.5,10c-5.7,3.8-11.9,6.7-18.3,8.6c-0.7,0.2-1.7,0.5-2.4,0
		c-0.5-0.5-0.7-1.2-1-1.9c-0.5-3.3-1.2-6.4-1.7-10c-0.2-1.2-0.5-2.6,0-3.8c0.5-1.2,1.7-2.4,2.9-2.1"/>
</g>
<g>
	<path fill="#F1592B" d="M687.3,701.8c5.7,1,11.4,1.9,17.1,2.9c0.7,0.2,1.7,0.5,1.7,1.2c0.2,1-0.5,1.7-1.4,2.1
		c-6.2,3.6-12.4,7.4-18.6,10.9c-0.5-5.9-0.7-11.7-1.2-17.6c1,0,1.7,0.2,2.9,0.2"/>
</g>
<g>
	<path fill="#F1592B" d="M836.5,699.9c-0.5,0-1.4-0.2-1.9-0.2c8.6,1.7,16.9,4,25,7.6c-7.6,5-15.9,8.6-24.5,10.5
		c-0.5-5.7-1.2-11.7-1.7-17.4C834.1,700.3,835,700.3,836.5,699.9"/>
</g>
<g>
	<path fill="#F1592B" d="M1070.9,600.1c14.8,6.2,29.3,12.4,44,18.6c-15.9,4.5-32.4,8.8-48.3,13.6c-2.1-6.4-2.9-13.6-1.7-20.2
		c0.7-5,2.9-10.7,7.9-12.1"/>
</g>
<g>
	<path fill="#F1592B" d="M918.8,370.7c10.9,5.2,21.7,10,32.4,15.2c-11.4,4-23.1,8.3-34.5,12.4c-1.9,0.7-4,1.4-6.2,0.5
		c-2.4-1.2-2.9-4.3-2.9-7.1c0-4.5,0.5-9,1.7-13.6c0.5-2.4,1.7-4.5,3.3-6.2c1.7-1.7,5-1.7,6.4,0.2"/>
</g>
<g>
	<path fill="#F1592B" d="M1175.4,166.3c-9.3,4.8-18.8,9.8-28.1,14.5c2.4,2.9,6.4,3.6,10,4c8.8,1.4,17.6,2.9,26.7,4.3
		c-0.7-5.7-1.4-11.4-2.1-17.1c-0.2-1.7-0.5-3.3-1.4-4.8c-0.7-1.4-2.6-2.6-4-2.1c-1.7,0.5-2.9,2.4-1.7,3.8"/>
</g>
<g>
	<path fill="#F1592B" d="M1377.4,210.8c-6.4,3.1-13.1,6.4-19.5,9.8c-0.7,0.5-1.7,0.7-1.7,1.7s1.2,1.4,2.1,1.7
		c5.7,1.4,11.7,2.9,17.4,4c1,0.2,1.9,0.5,2.9,0c1-0.5,1.2-1.9,1.4-3.1c0.2-5-0.5-9.8-2.4-14.5"/>
</g>
<g>
	<path fill="#FEEA39" d="M1213.7,136.1c24.8,0,37.8,31.4,20.7,53.5c-5,6.4-14.5,15.2-17.1,30c-1.7,8.8,8.6,11.4,16.9,15
		c5.2,2.4,11.4,1.4,17.1-0.2c18.3-5.2,34.7-17.1,45.5-33.3c0.7,5.2,1.7,10.7,2.4,15.9c6.9-4.3,14-8.6,20.9-12.9
		c-1,6.9-1.7,13.8-2.9,20.7c4.5-4,9-7.9,13.6-12.1c-6.2,25.7-19.5,49.5-38.6,67.8c-12.4,11.9-27.1,21.9-43.8,26.2
		c-16.7,4.3-33.6-0.5-49.7-5.7c-19.8-6.4-31.4-23.6-30.5-40.7c0.5-9.5,10.7-20.7,15-29c4-7.9,12.1-13.1,8.1-22.1
		c-2.9-6.9-7.6-14.5-13.8-18.3C1168.2,184.6,1164.9,136.1,1213.7,136.1z"/>
</g>
<g>
	<path fill="#FEEA39" d="M1395.5,189.6c11.2-2.4,23.6,2.1,30.2,11.2c6.7,9,7.9,22.1,2.6,32.4c-4,7.4-15.2,14.5-15,22.8
		c0.2,7.4,8.8,14.8,15.9,15.9c7.1,1.2,17.1-3.6,23.1-8.1c5.7-4.3,10.2-10.2,14.8-16.2c0,5.2-0.2,10.2-0.2,15.5
		c5.2-3.8,10.5-7.6,15.7-11.2c0.5,4.8-1.7,12.9-1.2,17.6c3.6-3.6,9.5-10.5,13.1-14c-0.7,0.7-0.5,6.4-0.5,7.6c-0.5,2.9-1,5.9-1.7,8.8
		c-1.4,5.5-3.3,10.9-5.9,15.9c-5,9.8-12.6,16.7-21.2,23.6c-16.7,13.6-58.3,12.4-58.5,12.4c-11.2-1.4-31.2-7.6-33.3-18.3
		c-6.9-33.3,34.7-34.3,16.4-57.4c-9.3-12.1-14-6.4-17.1-27.8C1370.7,210.8,1384.8,192,1395.5,189.6z"/>
</g>
<g>
	<path fill="#FEEA39" d="M781.5,464c18.1,5.2,38.3,2.1,54-8.3c6.9-4.8,13.6-11.9,13.1-20.2c-0.5-7.6-6.4-13.6-10.7-19.5
		c-12.4-16.9-16.7-43.1-7.6-61.9c8.8-18.8,31.2-28.8,51.9-26.7s40.2,21.9,40.2,42.6c0,44.3-29,37.1-33.3,76.2
		c-1.7,14,10.9,27.1,11.2,41.2c0.2,25-14.3,49-35.5,61.9c-21.2,13.1-47.8,15.9-71.9,8.8c-24-6.7-44.7-22.6-59.7-42.4
		c-14.8-19.8-24.3-50-28.8-74.3c5.5,2.4,11.2,10.7,16.9,13.1c-0.2-5.5,3.6-14,3.3-19.8c7.1,3.1,11.2,11.7,18.3,14.8
		c-0.2-5.9,1.2-15.5,0-21.2C742.9,429,763.4,458.5,781.5,464z"/>
</g>
<g>
	<path fill="#FEEA39" d="M437.4,730.8c67.3,45.5,77.8,2.1,71.2-4.3c-8.8-8.3-13.1-15.5-15.2-22.8c-2.9-10.2,5-23.1,13.8-29
		c8.8-5.9,24.3-2.6,32.6,4c8.3,6.7,10.5,22.1,6.4,32.1c-3.1,8.1-21.2,14.8-15,21.2c24.3,25.2,12.9,40.9,8.3,46.6
		c-15.2,18.3-45,22.6-66.9,13.6C450.2,783.4,435.2,754.6,437.4,730.8z"/>
</g>
<g>
	<path fill="#FEEA39" d="M579,735.6c13.3,13.3,76.2,28.1,70.9,5c-1.7-6.9-5.9-11.2-10-15.9c-8.8-10.7-7.6-27.8,2.1-37.6
		c10-9.8,26.9-10.5,37.8-1.9c10.9,8.6,14.5,25,8.6,37.1c-3.1,6.4-19,15.5-13.1,19.5c28.8,19.5,14.5,43.8,2.4,51.2
		s-58.8,14.8-82.8-10.5C585.2,771.7,580.6,754.4,579,735.6z"/>
</g>
<g>
	<path fill="#FEEA39" d="M739.8,737.2c5.2,5.7,18.3,15.2,25.2,19.5c18.3,11.2,29.7,3.3,35.7,1.4c5.9-2.1,4.3-17.4,1-23.3
		c-4.3-7.6-23.1-11.4-14.8-37.6c1.9-5.9,11.4-18.1,27.8-17.8c7.1,0.2,21.2,9.5,23.8,16.2c10.5,28.3-15.2,29.5-13.8,45.9
		c1.2,13.6,20.7,22.6,19.5,35.9c-0.5,5.5-4.5,9.8-8.1,14c-17.8,22.1-68.3,11.7-81.2-2.1c-5.9-6.4-11.2-15.9-12.4-24.8
		C741,755.3,739.1,745.8,739.8,737.2"/>
</g>
<g>
	<path fill="#FEEA39" d="M918.1,683.7c7.6,10.2,20.7,20,31.4,26.7c10.9,6.7,24,10.5,36.6,8.3c12.6-2.1,24.3-10.7,28.6-23.1
		c4.8-14.3-1.2-29.7-8.6-42.8c-7.4-13.1-16.2-25.9-18.1-40.7c-1.9-18.3,8.8-37.4,25.7-45.2c16.9-7.6,38.3-3.1,50.7,10.7
		c12.4,13.6,14.8,35.7,5.2,51.6c-6.4,11.2-18.1,19.5-21.9,32.1c-3.6,12.1,0.7,25,6.9,35.9c6.2,10.9,13.8,21.2,17.6,33.1
		c7.1,22.6-1.9,48.3-19.5,64.3c-17.4,15.9-41.9,22.8-65.4,22.1c-28.8-0.5-57.4-11.7-78.8-30.9c-21.7-19-33.6-51.9-37.6-80.4
		c9,5.2,16.2,12.1,23.8,14.5c-1.2-10.5-5.9-21.9-7.1-32.4c9.8,6.9,19.3,13.8,29,20.7C917.6,700.3,917.9,692,918.1,683.7z"/>
</g>
<g>
	<path fill="#FED600" d="M743.9,468.1c9.8,10,26.7,19.3,40.5,22.1c13.6,2.9,28.1,1.7,41.2-3.3c5.7-2.1,11.2-5.2,17.4-5
		c9.5,0.5,17.1,10,17.1,19.5c0.2,9.5-6.2,18.6-14.3,23.6s-18.1,6.9-27.6,7.1c-18.3,0.5-37.4-4.5-51.9-15.9
		C752.2,504.7,742.7,486.6,743.9,468.1"/>
</g>
<g>
	<path fill="#FED600" d="M931.7,741.5c19.8,10.5,48.8,15,69.7,6.7c6.4-2.4,12.4-5.7,18.6-7.4c6.4-1.7,13.8-1.4,19.3,2.9
		c7.6,5.7,8.1,17.8,2.9,25.9s-14.3,12.9-23.6,15.2c-16.9,4.5-35.2,2.9-50.9-4.3C952.1,773.2,939,757.4,931.7,741.5z"/>
</g>
<g>
	<path fill="#FED600" d="M759.1,769.1c12.4,27.8,35.9,27.8,44,24.5c3.1-1.2,16.4-4,15.2-16.4c-1.4-13.6-17.1-4-19.3-2.9
		C780.5,786.7,759.1,769.1,759.1,769.1z"/>
</g>
<g>
	<path fill="#FED600" d="M605.4,764.3c10,13.1,20.9,24.8,37.4,25.5c4,0.2,35.9-2.4,23.3-20.9c-7.1-10.5-20.7,0.2-25,1.2
		C629.7,772.7,616.1,769.3,605.4,764.3z"/>
</g>
<g>
	<path fill="#FED600" d="M458.8,762c11.2,12.1,25.5,22.6,41.9,23.1c16.2,0.5,26.7-2.9,24.3-15.9c-2.6-14.8-18.8-3.1-34.7-1.7
		C481.2,768.4,467.6,764.1,458.8,762z"/>
</g>
<g>
	<path fill="#FED600" d="M1291,245.5c-16.4,35.2-32.6,39.3-53.1,42.1c-5.2,0.7-29.3-2.1-29.3-18.8c0-12.4,17.1-12.9,22.8-12.4
		c9.3,1,14.8,5.2,24,4.3C1264.6,260.3,1284.6,252.2,1291,245.5z"/>
</g>
<g>
	<path fill="#FED600" d="M1460,283.1c-3.3,18.8-25.7,28.1-41.6,27.8c-2.6,0-19-4.3-15.9-15.2c1.7-5.7,7.1-8.6,11.9-9
		C1419.1,285.8,1444,295.5,1460,283.1z"/>
</g>
<g>
	<g>
		<path fill="#212121" d="M531.1,697.2c3.1,0,3.1-5,0-5C527.8,692.5,527.8,697.2,531.1,697.2L531.1,697.2z"/>
	</g>
</g>
<g>
	<g>
		<path fill="#212121" d="M676.8,702.9c0-0.2,0-0.2,0-0.5c0-3.1-5-3.1-5,0c0,0.2,0,0.2,0,0.5C671.8,706.3,676.8,706.3,676.8,702.9
			L676.8,702.9z"/>
	</g>
</g>
<g>
	<g>
		<path fill="#212121" d="M825,705.8c3.1,0,3.1-5,0-5C821.7,700.8,821.7,705.8,825,705.8L825,705.8z"/>
	</g>
</g>
<g>
	<g>
		<path fill="#212121" d="M1050.9,596.8c-1,0-2.1,0-3.1,0.5c-0.7,0.5-1.2,1.7-1.4,2.9c-0.2,1.7,0.5,3.1,1.7,4
			c2.9,2.1,7.4,0.5,7.6-3.3c0.2-3.6-3.8-6.4-6.9-4.5c-3.3,1.9-2.4,7.6,1.9,7.6c2.1,0,3.8-1.7,3.8-4c0-2.4-2.6-4-4.8-3.3
			c-3.1,0.7-1.7,5.5,1.4,4.8c-0.7,0.2-1.7-0.5-1.4-1.7c0.2-0.5,0.5-0.7,1-0.7s1.2,0.5,1.2,1c-0.2,0.5-0.5,0.5-0.7,0.5
			c0,0-0.2,0-0.2-0.2l0.2,0.2c-0.5,0,0-0.5-0.2,0c0.2-0.5-0.2,0.2,0,0c0-0.2,0-0.2,0.2-0.5c0.2-0.2,0.2-0.2,0,0c-0.2,0-0.2,0,0,0
			c-0.2,0.2-0.2,0,0.2,0c-0.5,0,0,0,0,0c-0.2,0,0.5,0.2,0,0c0.2,0,0.2,0.5,0,0c0,0.2-0.2,0.5,0,0.2c-0.7,0.5-1.4,0.7-2.1,1.2
			c0.5,0,1,0,1.7,0C1054.2,601.6,1054.2,596.6,1050.9,596.8L1050.9,596.8z"/>
	</g>
</g>
<g>
	<g>
		<path fill="#212121" d="M890.7,366.7c-3.3-0.7-6.7,1.7-6.7,5.2c0,3.1,3.1,5.2,6.4,5c3.6-0.5,5.2-4.5,3.6-7.6
			c-1.7-3.1-6.4-3.3-8.6-0.5c-1.9,2.9-0.5,6.7,2.9,7.4c3.1,0.5,6.4-1.7,6.2-5.2c-0.5-3.6-4-5.9-7.1-4.3c-2.9,1.4-3.8,5.5-1.7,7.9
			c2.1,2.4,6.7,1.9,8.3-1c1-1.7,0.5-3.8-0.5-5.2c-1.2-1.7-3.1-2.1-5-1.7c-1.4,0.2-1.9,1.7-1.7,2.9c0.5,1.4,1.7,1.9,2.9,1.7
			c-0.2,0-0.5,0-0.5,0c0.2,0,0.2,0,0.5,0.2c-0.2-0.2,0.5,0.2,0,0c0,0,0.2,0.2,0,0.2c0-0.2,0-0.2,0,0c0,0.2,0,0.2,0,0l0.2-0.2
			c0-0.2,0,0,0,0s0.5-0.2,0,0c-0.2,0.2,0,0,0,0c-0.2,0-0.2,0-0.5,0c-0.5,0,0,0,0.2,0c0,0-0.5,0-0.2,0c0.5,0-0.2,0-0.2,0
			s-0.2-0.2,0,0c0,0,0.2,0.2,0,0c-0.2-0.2,0.5,0.5,0,0.2l0,0c-0.2,0.2,0.2-0.2,0-0.2c0,0-0.2,0.2,0,0c0,0.2,0,0,0,0s0.2-0.2,0,0
			c0,0-0.5,0,0,0c0.2,0,0,0,0,0c-0.2,0,0-0.2,0,0c0,0,0.2,0.2,0,0c0.2,0.5,0,0,0.2,0.5c0-0.5,0.2,0.2,0-0.2c0,0,0.2-0.5,0,0
			c-0.2,0.2,0,0,0,0c0.2,0,0.2-0.2,0,0c-0.2,0.2,0.2,0,0,0c0,0-0.5,0.2-0.2,0c0.2,0-0.2,0-0.2,0s0.5,0,0,0s0,0,0,0s-0.2-0.2-0.2,0
			c0.2,0.2,0.2,0.5,0.5,0.5c-0.2-0.2,0-0.2,0-0.2s0,0,0,0.2c0,0.2,0,0,0,0v-0.2c-0.2,0.2,0.2,0,0,0c-0.5,0,0,0,0,0s0,0,0.2,0.2h-0.2
			c-0.2-0.2,0,0,0,0v0.2c0-0.2-0.2,0.5,0,0l0.2-0.2c-0.5,0.2,0,0.2,0,0c0,0-0.5,0-0.2,0c0.2,0-0.2,0-0.2,0c-0.2,0,0,0,0,0
			c-0.2,0-0.2,0-0.5-0.2c0.5,0.2-0.5-0.2-0.2,0s0,0,0-0.2c0,0,0.2,0.5,0,0c0,0.5,0,0.5,0.2,0.2c0,0.2,0-0.2,0.2-0.2l0.2-0.2
			c0,0,0.5-0.2,0.2,0c-0.2,0,0.5,0,0,0C892.4,372.2,893.8,367.4,890.7,366.7L890.7,366.7z"/>
	</g>
</g>
<g>
	<g>
		<path fill="#212121" d="M1192.3,163.4c-0.2-0.5-0.5-0.5-0.5-1c-1-1.7-3.1-1.7-4.3,0c-1.9,2.9,0,7.1,3.3,7.6c3.8,0.5,6.9-4,4.5-7.4
			c-2.1-3.1-7.1-2.9-8.6,1s1.9,7.1,5.7,6.4c4.3-1,4.8-6.9,1-8.8c-2.9-1.7-5.2,2.9-2.6,4.3c0.2,0,0.2,0.2,0,0s0-0.2,0,0
			c-0.2-0.5,0,0.2,0,0s0-0.2,0,0s0,0.2,0,0c0,0,0.2-0.5,0-0.2s0-0.2,0,0c0.2,0-0.5,0.2,0,0c-0.2,0-0.5,0,0,0c0.2,0,0.2,0.2,0,0
			c0,0,0.2,0,0.2,0.2c-0.2-0.2,0-0.2,0,0s0.2-0.2,0,0c0,0-0.2,0.5,0,0.2c0.2-0.5,0,0,0,0s-0.5,0.2,0,0c0.2-0.2-0.2,0-0.5,0
			c0.2,0,0.2,0,0,0c0.2,0,0.5,0,0.5,0.2c-0.2-0.2-0.2,0,0,0c-0.2,0-0.2-0.2-0.2-0.2c0.2,0.2,0,0.2,0,0v-0.2c0,0-0.2,0.2,0,0.2
			c0.2-0.2,0,0,0,0c-0.2,0-0.2,0,0,0h0.2c0.2,0,0,0,0,0c0.2,0,0.2,0,0.5,0.2c-0.2,0-0.2-0.2,0,0c-0.2-0.2-0.2-0.2,0,0v-0.2
			c0,0.2,0,0.2,0,0.2c0-0.2-0.2,0.2,0,0c0.2-0.2-0.2,0.5,0.2-0.2c-1.4,0-2.9,0-4.3,0c0.2,0.5,0.5,0.5,0.5,1
			C1189.6,168.7,1193.9,166.1,1192.3,163.4L1192.3,163.4z"/>
	</g>
</g>
<g>
	<g>
		<path fill="#212121" d="M1398.1,209.1c-1.4-1.4-3.3-1.7-5-0.5c-1.7,1-2.4,3.3-1.4,5.2c1,1.7,2.9,2.6,4.8,1.9
			c2.1-0.5,3.1-2.9,2.6-5c-0.5-1.7-2.1-3.3-4-3.1c-2.1,0.2-4,2.1-4,4.3s1.9,4,4,4c1.9,0,3.8-1.2,4-3.1c0.5-2.1-1-4.5-3.1-5
			c-2.4-0.5-4.5,0.7-5.2,2.9c-0.5,1.2,0.5,2.9,1.7,2.9c1.4,0.5,2.6-0.5,2.9-1.7c0,0.2-0.2,0.5-0.5,0.5c-0.2,0-0.2,0,0.2,0
			c-0.2,0-0.2,0-0.5,0c0.5,0-0.2-0.2-0.5-0.5c-0.2-0.2,0-0.5,0-0.5c0,0.2,0,0.5,0,0c0.2-0.2,0.5-0.5,0.5-0.5c0.2,0,0.5,0,0.5,0
			c0.5,0.2,0.5,1.2-0.2,1.4c-0.5,0.2-0.7-0.2-1-0.5c0.2,0.2,0,0,0-0.2s0.2-0.5,0.2-0.5c0.2-0.2,0.5-0.5,0.7-0.5c0.2,0,0.5,0,0.2,0
			s0.2,0.2,0.5,0.5c0.5,0.5,0,1-0.2,1.4c-0.2,0.2-0.2,0.2,0,0h-0.2c-0.5,0-0.5,0-1-0.2C1396.9,214.8,1400.2,211.5,1398.1,209.1
			L1398.1,209.1z"/>
	</g>
</g>
</svg>
